<svg class="tw-w-32 tw-h-32 bg-white" viewBox="0 0 301.4 195.2" xmlns="http://www.w3.org/2000/svg">
  <path d="M71.9 45.8c9 0 14.9 1.7 17.9 5 3 3.3 3.7 9 2.1 17-1.6 8.4-4.8 14.4-9.4 17.9-4.7 3.6-11.7 5.4-21.2 5.4H47l8.8-45.3h16.1zM14.5 137h23.6l5.6-28.8h20.2c8.9 0 16.2-.9 22-2.8 5.8-1.9 11-5 15.7-9.4 4-3.6 7.1-7.6 9.6-12 2.4-4.4 4.2-9.2 5.2-14.5 2.5-12.8.6-22.8-5.6-30-6.3-7.2-16.2-10.7-29.8-10.7H35.5L14.5 137zM133.7 0H157l-5.6 28.8h20.8c13.1 0 22.1 2.3 27.1 6.9 5 4.6 6.5 12 4.5 22.2l-9.8 50.4h-23.8l9.3-47.9c1.1-5.4.7-9.2-1.2-11.1-1.8-2-5.8-3-11.7-3h-18.7l-12 62h-23.4L133.7 0zm122.2 45.8c9 0 14.9 1.7 17.9 5 3 3.3 3.7 9 2.1 17-1.6 8.4-4.8 14.4-9.4 17.9-4.6 3.6-11.7 5.4-21.2 5.4H231l8.8-45.3h16.1zM198.5 137h23.6l5.6-28.8h20.2c8.9 0 16.2-.9 22-2.8 5.8-1.9 11-5 15.7-9.4 4-3.6 7.1-7.6 9.6-12 2.4-4.4 4.2-9.2 5.2-14.5 2.5-12.8.6-22.8-5.6-30-6.3-7.2-16.2-10.7-29.8-10.7h-45.3L198.5 137z"></path><path d="M276.1 195.2l10.6-50.6H10.5L0 195.2h276.1z" fill="#93140A"></path><path d="M17.2 178l-1.3 4.6H31c1.8.1 4.6-.6 6.9-4.5 2.5-4.3 1.9-9.2-4.6-9l-5.3.1c-1.1 0-2.8-.4-2.3-1.9.5-1.7 1.9-2.1 4.6-2.1h10.3l1.3-4.6-12.6.1c-7 .1-8.6 3.5-9.5 6.5-1.5 5.1-.6 6.8 6.7 6.6h4.7c2 0 2.5 1.3 2.1 2.2-.4 1.1-.6 2.2-4.3 2.2l-11.8-.2zm40.3-17.9c-10.1 0-15.3 8.5-15.3 15.1 0 4.3 2.7 7.7 9.2 7.7 9.2 0 15.2-7.5 15.2-14.5-.1-6.5-3.8-8.3-9.1-8.3zm-5.2 18.2c-2.8 0-3.9-1.8-3.9-5.1 0-3.7 3.6-8.2 7.4-8.2 2.8 0 4.5.7 4.5 4.5 0 4.1-3.4 8.8-8 8.8zm23.4 4.3h11l5.9-22.1h-5.8l-4.6 17.2-4.8.1c-2.9 0-3.5-.9-2.9-3.1l3.8-14.1h-5.8l-3.8 14c-1.6 5.5.4 8 7 8zm24.1-22.1l2.2-8h5.8l-2.2 8h6.2l-1.2 4.4h-6.2l-2.4 8.9c-.4 1.1-.4 2-.4 2.6.1.7.4 1 .8 1.2.4.2 1 .4 1.7.4.7.1 1.5.1 2.4.1h.4l-1.1 4.4h-5.3c-1.1 0-2.1-.1-2.8-.4-.7-.3-1.3-.7-1.7-1.4-.4-.6-.6-1.3-.7-2.2s.1-1.8.4-2.8l2.9-10.8h-4.1l1.2-4.4h4.1zm26.4 0H121l2.2-8h-5.8l-8 30.1h5.8l4.6-17.2 4.9.1c2.9 0 3.1 1.3 2.6 3.6l-3.7 13.6h5.9l3.4-12.7c2.9-9-3.2-9.4-6.7-9.5zm35.6 22.1h-6.4l-1.8-22.1h6.1l.7 15.5 9-15.5h6.2l.7 15.5 9-15.5h6L178 182.6h-6.7l-.8-15.1-8.7 15.1zm43.9-22.1h-11.9l-1.2 4.5s6.8.1 10.8.1c3.4 0 3.9 1.7 3.1 4l-7.7.1c-4.5 0-9 .7-10.7 7.2-1.1 4.2 1.1 6.2 5.2 6.2h15.6l3.7-14.2c1.4-5.4-1.3-7.9-6.9-7.9zm-1.7 17.6h-7.3c-3 0-3.1-.7-2.5-2.2.8-2.2 2.7-2.3 4.2-2.3h6.9l-1.3 4.5zm9.9 4.5l8-30.1h6l-8 30.1h-6zm34-4.6l-1.2 4.6h15.1c1.8.1 4.6-.6 6.9-4.5 2.5-4.3 1.9-9.2-4.6-9l-5.3.1c-1.1 0-2.8-.4-2.3-1.9.5-1.7 1.9-2.1 4.6-2.1h10.3l1.3-4.6-12.6.1c-7 .1-8.6 3.5-9.5 6.5-1.5 5.1-.6 6.8 6.7 6.6h4.7c2 0 2.5 1.3 2.1 2.2-.4 1.1-.6 2.2-4.3 2.2l-11.9-.2zm-4.6 4.6l1.2-4.6s-5.1 0-7.7.1c-4.4.1-5.1-1.1-4.3-4.2h13.2l1.3-4.6-13.2.1c.7-3.1 2.8-4.2 6.6-4.2 5.6.1 7.7 0 7.7 0l1.3-4.6s-.9.1-8.6.1-12.4 3.9-14.4 12.7 5.4 9.4 8.6 9.4c2.9-.2 8.3-.2 8.3-.2z" fill="#FFF"></path>
</svg>
